<?xml version="1.0" standalone="no"?>
<svg class="h-auto w-auto rounded-box" viewBox="0 0 2500 3100" xmlns="http://www.w3.org/2000/svg"><defs><rect id="1x1" width="100" height="100" rx="0" shape-rendering="crispEdges" /></defs><g><use x="0" y="0" fill="rgb(33,26,11)" href="#1x1"/><use x="100" y="0" fill="rgb(34,28,14)" href="#1x1"/><use x="200" y="0" fill="rgb(33,28,15)" href="#1x1"/><use x="300" y="0" fill="rgb(34,26,12)" href="#1x1"/><use x="400" y="0" fill="rgb(33,27,13)" href="#1x1"/><use x="500" y="0" fill="rgb(32,23,10)" href="#1x1"/><use x="600" y="0" fill="rgb(27,17,7)" href="#1x1"/><use x="700" y="0" fill="rgb(25,14,5)" href="#1x1"/><use x="800" y="0" fill="rgb(28,17,7)" href="#1x1"/><use x="900" y="0" fill="rgb(30,20,8)" href="#1x1"/><use x="1000" y="0" fill="rgb(33,25,12)" href="#1x1"/><use x="1100" y="0" fill="rgb(33,25,12)" href="#1x1"/><use x="1200" y="0" fill="rgb(31,21,7)" href="#1x1"/><use x="1300" y="0" fill="rgb(31,21,7)" href="#1x1"/><use x="1400" y="0" fill="rgb(32,22,10)" href="#1x1"/><use x="1500" y="0" fill="rgb(31,22,10)" href="#1x1"/><use x="1600" y="0" fill="rgb(32,22,10)" href="#1x1"/><use x="1700" y="0" fill="rgb(32,24,12)" href="#1x1"/><use x="1800" y="0" fill="rgb(33,24,13)" href="#1x1"/><use x="1900" y="0" fill="rgb(32,23,10)" href="#1x1"/><use x="2000" y="0" fill="rgb(30,20,9)" href="#1x1"/><use x="2100" y="0" fill="rgb(31,20,8)" href="#1x1"/><use x="2200" y="0" fill="rgb(32,20,8)" href="#1x1"/><use x="2300" y="0" fill="rgb(32,21,8)" href="#1x1"/><use x="2400" y="0" fill="rgb(31,20,7)" href="#1x1"/><use x="0" y="100" fill="rgb(35,32,20)" href="#1x1"/><use x="100" y="100" fill="rgb(37,34,23)" href="#1x1"/><use x="200" y="100" fill="rgb(35,31,20)" href="#1x1"/><use x="300" y="100" fill="rgb(35,28,15)" href="#1x1"/><use x="400" y="100" fill="rgb(36,30,17)" href="#1x1"/><use x="500" y="100" fill="rgb(33,26,14)" href="#1x1"/><use x="600" y="100" fill="rgb(31,24,10)" href="#1x1"/><use x="700" y="100" fill="rgb(32,25,12)" href="#1x1"/><use x="800" y="100" fill="rgb(33,27,14)" href="#1x1"/><use x="900" y="100" fill="rgb(31,22,9)" href="#1x1"/><use x="1000" y="100" fill="rgb(32,23,10)" href="#1x1"/><use x="1100" y="100" fill="rgb(33,24,10)" href="#1x1"/><use x="1200" y="100" fill="rgb(33,24,11)" href="#1x1"/><use x="1300" y="100" fill="rgb(35,28,16)" href="#1x1"/><use x="1400" y="100" fill="rgb(36,30,18)" href="#1x1"/><use x="1500" y="100" fill="rgb(34,27,15)" href="#1x1"/><use x="1600" y="100" fill="rgb(35,27,16)" href="#1x1"/><use x="1700" y="100" fill="rgb(33,24,12)" href="#1x1"/><use x="1800" y="100" fill="rgb(34,26,13)" href="#1x1"/><use x="1900" y="100" fill="rgb(33,24,13)" href="#1x1"/><use x="2000" y="100" fill="rgb(33,24,13)" href="#1x1"/><use x="2100" y="100" fill="rgb(35,25,14)" href="#1x1"/><use x="2200" y="100" fill="rgb(36,26,15)" href="#1x1"/><use x="2300" y="100" fill="rgb(35,25,13)" href="#1x1"/><use x="2400" y="100" fill="rgb(34,22,8)" href="#1x1"/><use x="0" y="200" fill="rgb(37,34,25)" href="#1x1"/><use x="100" y="200" fill="rgb(36,32,22)" href="#1x1"/><use x="200" y="200" fill="rgb(39,35,24)" href="#1x1"/><use x="300" y="200" fill="rgb(37,33,22)" href="#1x1"/><use x="400" y="200" fill="rgb(37,33,22)" href="#1x1"/><use x="500" y="200" fill="rgb(35,31,19)" href="#1x1"/><use x="600" y="200" fill="rgb(33,27,15)" href="#1x1"/><use x="700" y="200" fill="rgb(32,25,12)" href="#1x1"/><use x="800" y="200" fill="rgb(33,26,13)" href="#1x1"/><use x="900" y="200" fill="rgb(30,20,8)" href="#1x1"/><use x="1000" y="200" fill="rgb(30,21,9)" href="#1x1"/><use x="1100" y="200" fill="rgb(32,23,10)" href="#1x1"/><use x="1200" y="200" fill="rgb(31,22,12)" href="#1x1"/><use x="1300" y="200" fill="rgb(34,26,14)" href="#1x1"/><use x="1400" y="200" fill="rgb(36,29,16)" href="#1x1"/><use x="1500" y="200" fill="rgb(36,29,18)" href="#1x1"/><use x="1600" y="200" fill="rgb(36,30,19)" href="#1x1"/><use x="1700" y="200" fill="rgb(36,30,20)" href="#1x1"/><use x="1800" y="200" fill="rgb(35,29,18)" href="#1x1"/><use x="1900" y="200" fill="rgb(35,27,15)" href="#1x1"/><use x="2000" y="200" fill="rgb(34,26,14)" href="#1x1"/><use x="2100" y="200" fill="rgb(34,26,13)" href="#1x1"/><use x="2200" y="200" fill="rgb(37,30,17)" href="#1x1"/><use x="2300" y="200" fill="rgb(36,29,17)" href="#1x1"/><use x="2400" y="200" fill="rgb(35,26,14)" href="#1x1"/><use x="0" y="300" fill="rgb(38,35,25)" href="#1x1"/><use x="100" y="300" fill="rgb(38,35,25)" href="#1x1"/><use x="200" y="300" fill="rgb(42,38,27)" href="#1x1"/><use x="300" y="300" fill="rgb(39,35,24)" href="#1x1"/><use x="400" y="300" fill="rgb(36,33,22)" href="#1x1"/><use x="500" y="300" fill="rgb(35,31,20)" href="#1x1"/><use x="600" y="300" fill="rgb(32,26,15)" href="#1x1"/><use x="700" y="300" fill="rgb(32,25,13)" href="#1x1"/><use x="800" y="300" fill="rgb(31,23,10)" href="#1x1"/><use x="900" y="300" fill="rgb(31,23,10)" href="#1x1"/><use x="1000" y="300" fill="rgb(34,26,13)" href="#1x1"/><use x="1100" y="300" fill="rgb(35,28,16)" href="#1x1"/><use x="1200" y="300" fill="rgb(35,26,13)" href="#1x1"/><use x="1300" y="300" fill="rgb(37,30,18)" href="#1x1"/><use x="1400" y="300" fill="rgb(86,75,56)" href="#1x1"/><use x="1500" y="300" fill="rgb(119,104,76)" href="#1x1"/><use x="1600" y="300" fill="rgb(107,92,66)" href="#1x1"/><use x="1700" y="300" fill="rgb(66,57,39)" href="#1x1"/><use x="1800" y="300" fill="rgb(41,36,26)" href="#1x1"/><use x="1900" y="300" fill="rgb(37,30,18)" href="#1x1"/><use x="2000" y="300" fill="rgb(38,31,18)" href="#1x1"/><use x="2100" y="300" fill="rgb(39,31,19)" href="#1x1"/><use x="2200" y="300" fill="rgb(37,31,20)" href="#1x1"/><use x="2300" y="300" fill="rgb(35,27,16)" href="#1x1"/><use x="2400" y="300" fill="rgb(33,25,13)" href="#1x1"/><use x="0" y="400" fill="rgb(38,36,27)" href="#1x1"/><use x="100" y="400" fill="rgb(38,35,27)" href="#1x1"/><use x="200" y="400" fill="rgb(40,37,27)" href="#1x1"/><use x="300" y="400" fill="rgb(40,37,29)" href="#1x1"/><use x="400" y="400" fill="rgb(40,37,29)" href="#1x1"/><use x="500" y="400" fill="rgb(38,35,26)" href="#1x1"/><use x="600" y="400" fill="rgb(38,34,25)" href="#1x1"/><use x="700" y="400" fill="rgb(36,32,21)" href="#1x1"/><use x="800" y="400" fill="rgb(35,30,20)" href="#1x1"/><use x="900" y="400" fill="rgb(35,29,18)" href="#1x1"/><use x="1000" y="400" fill="rgb(37,31,22)" href="#1x1"/><use x="1100" y="400" fill="rgb(39,33,22)" href="#1x1"/><use x="1200" y="400" fill="rgb(58,49,35)" href="#1x1"/><use x="1300" y="400" fill="rgb(135,120,93)" href="#1x1"/><use x="1400" y="400" fill="rgb(200,176,134)" href="#1x1"/><use x="1500" y="400" fill="rgb(194,169,128)" href="#1x1"/><use x="1600" y="400" fill="rgb(231,206,159)" href="#1x1"/><use x="1700" y="400" fill="rgb(206,181,138)" href="#1x1"/><use x="1800" y="400" fill="rgb(93,80,55)" href="#1x1"/><use x="1900" y="400" fill="rgb(44,34,20)" href="#1x1"/><use x="2000" y="400" fill="rgb(38,30,18)" href="#1x1"/><use x="2100" y="400" fill="rgb(38,32,21)" href="#1x1"/><use x="2200" y="400" fill="rgb(38,32,22)" href="#1x1"/><use x="2300" y="400" fill="rgb(36,31,21)" href="#1x1"/><use x="2400" y="400" fill="rgb(35,28,18)" href="#1x1"/><use x="0" y="500" fill="rgb(38,36,28)" href="#1x1"/><use x="100" y="500" fill="rgb(42,39,31)" href="#1x1"/><use x="200" y="500" fill="rgb(42,39,32)" href="#1x1"/><use x="300" y="500" fill="rgb(43,40,32)" href="#1x1"/><use x="400" y="500" fill="rgb(41,39,32)" href="#1x1"/><use x="500" y="500" fill="rgb(41,38,31)" href="#1x1"/><use x="600" y="500" fill="rgb(40,37,29)" href="#1x1"/><use x="700" y="500" fill="rgb(39,36,26)" href="#1x1"/><use x="800" y="500" fill="rgb(38,34,25)" href="#1x1"/><use x="900" y="500" fill="rgb(38,34,25)" href="#1x1"/><use x="1000" y="500" fill="rgb(84,83,76)" href="#1x1"/><use x="1100" y="500" fill="rgb(133,134,131)" href="#1x1"/><use x="1200" y="500" fill="rgb(154,162,165)" href="#1x1"/><use x="1300" y="500" fill="rgb(158,168,170)" href="#1x1"/><use x="1400" y="500" fill="rgb(161,166,157)" href="#1x1"/><use x="1500" y="500" fill="rgb(197,182,148)" href="#1x1"/><use x="1600" y="500" fill="rgb(185,162,124)" href="#1x1"/><use x="1700" y="500" fill="rgb(176,152,112)" href="#1x1"/><use x="1800" y="500" fill="rgb(139,118,83)" href="#1x1"/><use x="1900" y="500" fill="rgb(68,58,37)" href="#1x1"/><use x="2000" y="500" fill="rgb(40,33,21)" href="#1x1"/><use x="2100" y="500" fill="rgb(38,31,20)" href="#1x1"/><use x="2200" y="500" fill="rgb(39,34,23)" href="#1x1"/><use x="2300" y="500" fill="rgb(36,30,20)" href="#1x1"/><use x="2400" y="500" fill="rgb(35,27,16)" href="#1x1"/><use x="0" y="600" fill="rgb(37,34,25)" href="#1x1"/><use x="100" y="600" fill="rgb(41,39,31)" href="#1x1"/><use x="200" y="600" fill="rgb(43,40,33)" href="#1x1"/><use x="300" y="600" fill="rgb(44,42,32)" href="#1x1"/><use x="400" y="600" fill="rgb(44,41,32)" href="#1x1"/><use x="500" y="600" fill="rgb(43,40,32)" href="#1x1"/><use x="600" y="600" fill="rgb(39,36,26)" href="#1x1"/><use x="700" y="600" fill="rgb(37,33,22)" href="#1x1"/><use x="800" y="600" fill="rgb(43,38,30)" href="#1x1"/><use x="900" y="600" fill="rgb(124,127,126)" href="#1x1"/><use x="1000" y="600" fill="rgb(180,191,199)" href="#1x1"/><use x="1100" y="600" fill="rgb(179,190,198)" href="#1x1"/><use x="1200" y="600" fill="rgb(152,174,191)" href="#1x1"/><use x="1300" y="600" fill="rgb(144,168,188)" href="#1x1"/><use x="1400" y="600" fill="rgb(127,153,175)" href="#1x1"/><use x="1500" y="600" fill="rgb(102,130,153)" href="#1x1"/><use x="1600" y="600" fill="rgb(145,141,128)" href="#1x1"/><use x="1700" y="600" fill="rgb(153,134,100)" href="#1x1"/><use x="1800" y="600" fill="rgb(132,113,80)" href="#1x1"/><use x="1900" y="600" fill="rgb(93,77,48)" href="#1x1"/><use x="2000" y="600" fill="rgb(47,38,24)" href="#1x1"/><use x="2100" y="600" fill="rgb(38,31,19)" href="#1x1"/><use x="2200" y="600" fill="rgb(38,32,21)" href="#1x1"/><use x="2300" y="600" fill="rgb(36,28,17)" href="#1x1"/><use x="2400" y="600" fill="rgb(34,23,12)" href="#1x1"/><use x="0" y="700" fill="rgb(39,36,25)" href="#1x1"/><use x="100" y="700" fill="rgb(41,38,30)" href="#1x1"/><use x="200" y="700" fill="rgb(43,40,32)" href="#1x1"/><use x="300" y="700" fill="rgb(45,43,33)" href="#1x1"/><use x="400" y="700" fill="rgb(43,40,31)" href="#1x1"/><use x="500" y="700" fill="rgb(41,38,30)" href="#1x1"/><use x="600" y="700" fill="rgb(40,36,26)" href="#1x1"/><use x="700" y="700" fill="rgb(38,34,25)" href="#1x1"/><use x="800" y="700" fill="rgb(101,101,99)" href="#1x1"/><use x="900" y="700" fill="rgb(178,189,198)" href="#1x1"/><use x="1000" y="700" fill="rgb(178,190,199)" href="#1x1"/><use x="1100" y="700" fill="rgb(170,182,193)" href="#1x1"/><use x="1200" y="700" fill="rgb(146,173,195)" href="#1x1"/><use x="1300" y="700" fill="rgb(139,165,187)" href="#1x1"/><use x="1400" y="700" fill="rgb(134,157,175)" href="#1x1"/><use x="1500" y="700" fill="rgb(125,148,167)" href="#1x1"/><use x="1600" y="700" fill="rgb(73,94,111)" href="#1x1"/><use x="1700" y="700" fill="rgb(91,95,92)" href="#1x1"/><use x="1800" y="700" fill="rgb(119,99,66)" href="#1x1"/><use x="1900" y="700" fill="rgb(119,101,67)" href="#1x1"/><use x="2000" y="700" fill="rgb(54,46,33)" href="#1x1"/><use x="2100" y="700" fill="rgb(38,29,18)" href="#1x1"/><use x="2200" y="700" fill="rgb(37,29,17)" href="#1x1"/><use x="2300" y="700" fill="rgb(36,27,16)" href="#1x1"/><use x="2400" y="700" fill="rgb(36,24,12)" href="#1x1"/><use x="0" y="800" fill="rgb(40,38,28)" href="#1x1"/><use x="100" y="800" fill="rgb(43,40,31)" href="#1x1"/><use x="200" y="800" fill="rgb(44,41,30)" href="#1x1"/><use x="300" y="800" fill="rgb(45,41,30)" href="#1x1"/><use x="400" y="800" fill="rgb(43,39,29)" href="#1x1"/><use x="500" y="800" fill="rgb(42,39,28)" href="#1x1"/><use x="600" y="800" fill="rgb(41,38,27)" href="#1x1"/><use x="700" y="800" fill="rgb(46,40,31)" href="#1x1"/><use x="800" y="800" fill="rgb(155,161,163)" href="#1x1"/><use x="900" y="800" fill="rgb(182,187,187)" href="#1x1"/><use x="1000" y="800" fill="rgb(167,183,193)" href="#1x1"/><use x="1100" y="800" fill="rgb(144,163,177)" href="#1x1"/><use x="1200" y="800" fill="rgb(111,141,167)" href="#1x1"/><use x="1300" y="800" fill="rgb(125,157,182)" href="#1x1"/><use x="1400" y="800" fill="rgb(106,138,163)" href="#1x1"/><use x="1500" y="800" fill="rgb(96,120,139)" href="#1x1"/><use x="1600" y="800" fill="rgb(62,80,96)" href="#1x1"/><use x="1700" y="800" fill="rgb(62,80,97)" href="#1x1"/><use x="1800" y="800" fill="rgb(100,97,84)" href="#1x1"/><use x="1900" y="800" fill="rgb(146,121,83)" href="#1x1"/><use x="2000" y="800" fill="rgb(78,68,50)" href="#1x1"/><use x="2100" y="800" fill="rgb(32,21,13)" href="#1x1"/><use x="2200" y="800" fill="rgb(35,23,11)" href="#1x1"/><use x="2300" y="800" fill="rgb(36,26,15)" href="#1x1"/><use x="2400" y="800" fill="rgb(35,25,13)" href="#1x1"/><use x="0" y="900" fill="rgb(39,36,25)" href="#1x1"/><use x="100" y="900" fill="rgb(44,41,29)" href="#1x1"/><use x="200" y="900" fill="rgb(43,39,28)" href="#1x1"/><use x="300" y="900" fill="rgb(43,39,28)" href="#1x1"/><use x="400" y="900" fill="rgb(43,39,27)" href="#1x1"/><use x="500" y="900" fill="rgb(43,39,27)" href="#1x1"/><use x="600" y="900" fill="rgb(42,38,27)" href="#1x1"/><use x="700" y="900" fill="rgb(60,51,39)" href="#1x1"/><use x="800" y="900" fill="rgb(229,200,183)" href="#1x1"/><use x="900" y="900" fill="rgb(242,213,196)" href="#1x1"/><use x="1000" y="900" fill="rgb(217,193,177)" href="#1x1"/><use x="1100" y="900" fill="rgb(154,155,155)" href="#1x1"/><use x="1200" y="900" fill="rgb(106,128,147)" href="#1x1"/><use x="1300" y="900" fill="rgb(69,95,116)" href="#1x1"/><use x="1400" y="900" fill="rgb(59,90,113)" href="#1x1"/><use x="1500" y="900" fill="rgb(49,73,93)" href="#1x1"/><use x="1600" y="900" fill="rgb(53,76,95)" href="#1x1"/><use x="1700" y="900" fill="rgb(62,79,92)" href="#1x1"/><use x="1800" y="900" fill="rgb(72,81,88)" href="#1x1"/><use x="1900" y="900" fill="rgb(146,120,81)" href="#1x1"/><use x="2000" y="900" fill="rgb(99,84,61)" href="#1x1"/><use x="2100" y="900" fill="rgb(37,29,23)" href="#1x1"/><use x="2200" y="900" fill="rgb(35,23,12)" href="#1x1"/><use x="2300" y="900" fill="rgb(35,25,14)" href="#1x1"/><use x="2400" y="900" fill="rgb(35,25,15)" href="#1x1"/><use x="0" y="1000" fill="rgb(36,32,19)" href="#1x1"/><use x="100" y="1000" fill="rgb(39,35,23)" href="#1x1"/><use x="200" y="1000" fill="rgb(40,37,24)" href="#1x1"/><use x="300" y="1000" fill="rgb(40,36,24)" href="#1x1"/><use x="400" y="1000" fill="rgb(43,38,25)" href="#1x1"/><use x="500" y="1000" fill="rgb(44,40,27)" href="#1x1"/><use x="600" y="1000" fill="rgb(43,39,28)" href="#1x1"/><use x="700" y="1000" fill="rgb(109,94,77)" href="#1x1"/><use x="800" y="1000" fill="rgb(227,196,174)" href="#1x1"/><use x="900" y="1000" fill="rgb(236,203,181)" href="#1x1"/><use x="1000" y="1000" fill="rgb(221,187,164)" href="#1x1"/><use x="1100" y="1000" fill="rgb(217,180,152)" href="#1x1"/><use x="1200" y="1000" fill="rgb(138,125,113)" href="#1x1"/><use x="1300" y="1000" fill="rgb(56,71,84)" href="#1x1"/><use x="1400" y="1000" fill="rgb(40,60,76)" href="#1x1"/><use x="1500" y="1000" fill="rgb(42,67,86)" href="#1x1"/><use x="1600" y="1000" fill="rgb(53,74,91)" href="#1x1"/><use x="1700" y="1000" fill="rgb(57,78,95)" href="#1x1"/><use x="1800" y="1000" fill="rgb(57,70,82)" href="#1x1"/><use x="1900" y="1000" fill="rgb(148,123,86)" href="#1x1"/><use x="2000" y="1000" fill="rgb(103,86,56)" href="#1x1"/><use x="2100" y="1000" fill="rgb(40,36,33)" href="#1x1"/><use x="2200" y="1000" fill="rgb(35,21,11)" href="#1x1"/><use x="2300" y="1000" fill="rgb(35,24,13)" href="#1x1"/><use x="2400" y="1000" fill="rgb(35,25,16)" href="#1x1"/><use x="0" y="1100" fill="rgb(37,32,18)" href="#1x1"/><use x="100" y="1100" fill="rgb(39,35,22)" href="#1x1"/><use x="200" y="1100" fill="rgb(39,35,22)" href="#1x1"/><use x="300" y="1100" fill="rgb(40,36,23)" href="#1x1"/><use x="400" y="1100" fill="rgb(41,37,23)" href="#1x1"/><use x="500" y="1100" fill="rgb(43,39,25)" href="#1x1"/><use x="600" y="1100" fill="rgb(47,43,30)" href="#1x1"/><use x="700" y="1100" fill="rgb(91,77,62)" href="#1x1"/><use x="800" y="1100" fill="rgb(161,139,123)" href="#1x1"/><use x="900" y="1100" fill="rgb(207,177,154)" href="#1x1"/><use x="1000" y="1100" fill="rgb(187,158,133)" href="#1x1"/><use x="1100" y="1100" fill="rgb(180,149,126)" href="#1x1"/><use x="1200" y="1100" fill="rgb(170,142,116)" href="#1x1"/><use x="1300" y="1100" fill="rgb(95,79,65)" href="#1x1"/><use x="1400" y="1100" fill="rgb(56,70,80)" href="#1x1"/><use x="1500" y="1100" fill="rgb(43,66,83)" href="#1x1"/><use x="1600" y="1100" fill="rgb(32,58,78)" href="#1x1"/><use x="1700" y="1100" fill="rgb(52,74,93)" href="#1x1"/><use x="1800" y="1100" fill="rgb(45,64,78)" href="#1x1"/><use x="1900" y="1100" fill="rgb(152,129,94)" href="#1x1"/><use x="2000" y="1100" fill="rgb(123,102,65)" href="#1x1"/><use x="2100" y="1100" fill="rgb(52,51,49)" href="#1x1"/><use x="2200" y="1100" fill="rgb(40,28,15)" href="#1x1"/><use x="2300" y="1100" fill="rgb(38,27,17)" href="#1x1"/><use x="2400" y="1100" fill="rgb(36,26,16)" href="#1x1"/><use x="0" y="1200" fill="rgb(39,36,23)" href="#1x1"/><use x="100" y="1200" fill="rgb(40,36,25)" href="#1x1"/><use x="200" y="1200" fill="rgb(42,36,23)" href="#1x1"/><use x="300" y="1200" fill="rgb(42,37,24)" href="#1x1"/><use x="400" y="1200" fill="rgb(39,33,19)" href="#1x1"/><use x="500" y="1200" fill="rgb(44,38,24)" href="#1x1"/><use x="600" y="1200" fill="rgb(47,44,30)" href="#1x1"/><use x="700" y="1200" fill="rgb(134,115,99)" href="#1x1"/><use x="800" y="1200" fill="rgb(228,191,173)" href="#1x1"/><use x="900" y="1200" fill="rgb(191,159,134)" href="#1x1"/><use x="1000" y="1200" fill="rgb(218,181,155)" href="#1x1"/><use x="1100" y="1200" fill="rgb(140,119,101)" href="#1x1"/><use x="1200" y="1200" fill="rgb(140,114,90)" href="#1x1"/><use x="1300" y="1200" fill="rgb(123,96,76)" href="#1x1"/><use x="1400" y="1200" fill="rgb(88,73,58)" href="#1x1"/><use x="1500" y="1200" fill="rgb(58,70,80)" href="#1x1"/><use x="1600" y="1200" fill="rgb(46,66,81)" href="#1x1"/><use x="1700" y="1200" fill="rgb(38,64,85)" href="#1x1"/><use x="1800" y="1200" fill="rgb(35,49,60)" href="#1x1"/><use x="1900" y="1200" fill="rgb(157,135,99)" href="#1x1"/><use x="2000" y="1200" fill="rgb(120,99,63)" href="#1x1"/><use x="2100" y="1200" fill="rgb(72,70,64)" href="#1x1"/><use x="2200" y="1200" fill="rgb(39,26,16)" href="#1x1"/><use x="2300" y="1200" fill="rgb(37,26,13)" href="#1x1"/><use x="2400" y="1200" fill="rgb(37,26,14)" href="#1x1"/><use x="0" y="1300" fill="rgb(39,34,22)" href="#1x1"/><use x="100" y="1300" fill="rgb(38,33,20)" href="#1x1"/><use x="200" y="1300" fill="rgb(42,37,25)" href="#1x1"/><use x="300" y="1300" fill="rgb(43,37,23)" href="#1x1"/><use x="400" y="1300" fill="rgb(39,33,18)" href="#1x1"/><use x="500" y="1300" fill="rgb(40,34,20)" href="#1x1"/><use x="600" y="1300" fill="rgb(44,40,28)" href="#1x1"/><use x="700" y="1300" fill="rgb(141,119,104)" href="#1x1"/><use x="800" y="1300" fill="rgb(232,192,178)" href="#1x1"/><use x="900" y="1300" fill="rgb(165,132,105)" href="#1x1"/><use x="1000" y="1300" fill="rgb(216,175,148)" href="#1x1"/><use x="1100" y="1300" fill="rgb(217,178,155)" href="#1x1"/><use x="1200" y="1300" fill="rgb(196,162,137)" href="#1x1"/><use x="1300" y="1300" fill="rgb(129,102,79)" href="#1x1"/><use x="1400" y="1300" fill="rgb(105,78,56)" href="#1x1"/><use x="1500" y="1300" fill="rgb(85,71,58)" href="#1x1"/><use x="1600" y="1300" fill="rgb(55,71,84)" href="#1x1"/><use x="1700" y="1300" fill="rgb(40,61,76)" href="#1x1"/><use x="1800" y="1300" fill="rgb(39,47,50)" href="#1x1"/><use x="1900" y="1300" fill="rgb(155,133,97)" href="#1x1"/><use x="2000" y="1300" fill="rgb(133,109,72)" href="#1x1"/><use x="2100" y="1300" fill="rgb(81,77,70)" href="#1x1"/><use x="2200" y="1300" fill="rgb(35,27,22)" href="#1x1"/><use x="2300" y="1300" fill="rgb(36,25,12)" href="#1x1"/><use x="2400" y="1300" fill="rgb(36,26,15)" href="#1x1"/><use x="0" y="1400" fill="rgb(39,34,21)" href="#1x1"/><use x="100" y="1400" fill="rgb(33,27,14)" href="#1x1"/><use x="200" y="1400" fill="rgb(40,35,22)" href="#1x1"/><use x="300" y="1400" fill="rgb(41,36,23)" href="#1x1"/><use x="400" y="1400" fill="rgb(40,34,21)" href="#1x1"/><use x="500" y="1400" fill="rgb(37,29,16)" href="#1x1"/><use x="600" y="1400" fill="rgb(43,38,25)" href="#1x1"/><use x="700" y="1400" fill="rgb(113,96,80)" href="#1x1"/><use x="800" y="1400" fill="rgb(201,165,146)" href="#1x1"/><use x="900" y="1400" fill="rgb(129,98,73)" href="#1x1"/><use x="1000" y="1400" fill="rgb(195,157,130)" href="#1x1"/><use x="1100" y="1400" fill="rgb(211,177,149)" href="#1x1"/><use x="1200" y="1400" fill="rgb(171,140,113)" href="#1x1"/><use x="1300" y="1400" fill="rgb(110,83,64)" href="#1x1"/><use x="1400" y="1400" fill="rgb(108,80,58)" href="#1x1"/><use x="1500" y="1400" fill="rgb(97,74,53)" href="#1x1"/><use x="1600" y="1400" fill="rgb(79,65,55)" href="#1x1"/><use x="1700" y="1400" fill="rgb(39,42,43)" href="#1x1"/><use x="1800" y="1400" fill="rgb(45,38,26)" href="#1x1"/><use x="1900" y="1400" fill="rgb(140,121,89)" href="#1x1"/><use x="2000" y="1400" fill="rgb(148,122,82)" href="#1x1"/><use x="2100" y="1400" fill="rgb(102,94,79)" href="#1x1"/><use x="2200" y="1400" fill="rgb(46,46,46)" href="#1x1"/><use x="2300" y="1400" fill="rgb(35,24,13)" href="#1x1"/><use x="2400" y="1400" fill="rgb(36,25,14)" href="#1x1"/><use x="0" y="1500" fill="rgb(32,28,15)" href="#1x1"/><use x="100" y="1500" fill="rgb(32,26,13)" href="#1x1"/><use x="200" y="1500" fill="rgb(39,34,18)" href="#1x1"/><use x="300" y="1500" fill="rgb(44,39,25)" href="#1x1"/><use x="400" y="1500" fill="rgb(40,35,20)" href="#1x1"/><use x="500" y="1500" fill="rgb(38,31,16)" href="#1x1"/><use x="600" y="1500" fill="rgb(40,33,21)" href="#1x1"/><use x="700" y="1500" fill="rgb(72,62,45)" href="#1x1"/><use x="800" y="1500" fill="rgb(223,177,159)" href="#1x1"/><use x="900" y="1500" fill="rgb(164,131,108)" href="#1x1"/><use x="1000" y="1500" fill="rgb(194,161,136)" href="#1x1"/><use x="1100" y="1500" fill="rgb(191,159,131)" href="#1x1"/><use x="1200" y="1500" fill="rgb(148,121,95)" href="#1x1"/><use x="1300" y="1500" fill="rgb(115,91,72)" href="#1x1"/><use x="1400" y="1500" fill="rgb(109,84,61)" href="#1x1"/><use x="1500" y="1500" fill="rgb(94,70,49)" href="#1x1"/><use x="1600" y="1500" fill="rgb(60,46,34)" href="#1x1"/><use x="1700" y="1500" fill="rgb(44,32,20)" href="#1x1"/><use x="1800" y="1500" fill="rgb(42,35,25)" href="#1x1"/><use x="1900" y="1500" fill="rgb(158,136,99)" href="#1x1"/><use x="2000" y="1500" fill="rgb(154,130,91)" href="#1x1"/><use x="2100" y="1500" fill="rgb(141,128,104)" href="#1x1"/><use x="2200" y="1500" fill="rgb(66,72,75)" href="#1x1"/><use x="2300" y="1500" fill="rgb(37,26,14)" href="#1x1"/><use x="2400" y="1500" fill="rgb(34,25,14)" href="#1x1"/><use x="0" y="1600" fill="rgb(40,35,21)" href="#1x1"/><use x="100" y="1600" fill="rgb(36,30,15)" href="#1x1"/><use x="200" y="1600" fill="rgb(41,35,20)" href="#1x1"/><use x="300" y="1600" fill="rgb(42,38,23)" href="#1x1"/><use x="400" y="1600" fill="rgb(43,37,22)" href="#1x1"/><use x="500" y="1600" fill="rgb(41,34,18)" href="#1x1"/><use x="600" y="1600" fill="rgb(42,37,23)" href="#1x1"/><use x="700" y="1600" fill="rgb(48,44,30)" href="#1x1"/><use x="800" y="1600" fill="rgb(173,130,112)" href="#1x1"/><use x="900" y="1600" fill="rgb(178,112,95)" href="#1x1"/><use x="1000" y="1600" fill="rgb(171,127,106)" href="#1x1"/><use x="1100" y="1600" fill="rgb(169,140,115)" href="#1x1"/><use x="1200" y="1600" fill="rgb(139,113,89)" href="#1x1"/><use x="1300" y="1600" fill="rgb(138,110,85)" href="#1x1"/><use x="1400" y="1600" fill="rgb(118,96,74)" href="#1x1"/><use x="1500" y="1600" fill="rgb(120,103,85)" href="#1x1"/><use x="1600" y="1600" fill="rgb(62,50,39)" href="#1x1"/><use x="1700" y="1600" fill="rgb(48,34,21)" href="#1x1"/><use x="1800" y="1600" fill="rgb(42,34,22)" href="#1x1"/><use x="1900" y="1600" fill="rgb(157,135,98)" href="#1x1"/><use x="2000" y="1600" fill="rgb(162,136,97)" href="#1x1"/><use x="2100" y="1600" fill="rgb(170,155,128)" href="#1x1"/><use x="2200" y="1600" fill="rgb(80,88,94)" href="#1x1"/><use x="2300" y="1600" fill="rgb(40,31,22)" href="#1x1"/><use x="2400" y="1600" fill="rgb(37,27,17)" href="#1x1"/><use x="0" y="1700" fill="rgb(40,37,24)" href="#1x1"/><use x="100" y="1700" fill="rgb(38,32,19)" href="#1x1"/><use x="200" y="1700" fill="rgb(42,34,21)" href="#1x1"/><use x="300" y="1700" fill="rgb(43,36,20)" href="#1x1"/><use x="400" y="1700" fill="rgb(42,35,20)" href="#1x1"/><use x="500" y="1700" fill="rgb(42,35,21)" href="#1x1"/><use x="600" y="1700" fill="rgb(42,35,21)" href="#1x1"/><use x="700" y="1700" fill="rgb(46,42,29)" href="#1x1"/><use x="800" y="1700" fill="rgb(125,106,87)" href="#1x1"/><use x="900" y="1700" fill="rgb(203,167,145)" href="#1x1"/><use x="1000" y="1700" fill="rgb(163,136,110)" href="#1x1"/><use x="1100" y="1700" fill="rgb(158,133,107)" href="#1x1"/><use x="1200" y="1700" fill="rgb(152,124,94)" href="#1x1"/><use x="1300" y="1700" fill="rgb(140,116,88)" href="#1x1"/><use x="1400" y="1700" fill="rgb(110,91,67)" href="#1x1"/><use x="1500" y="1700" fill="rgb(114,97,79)" href="#1x1"/><use x="1600" y="1700" fill="rgb(98,88,77)" href="#1x1"/><use x="1700" y="1700" fill="rgb(106,95,83)" href="#1x1"/><use x="1800" y="1700" fill="rgb(97,87,74)" href="#1x1"/><use x="1900" y="1700" fill="rgb(141,120,89)" href="#1x1"/><use x="2000" y="1700" fill="rgb(182,152,107)" href="#1x1"/><use x="2100" y="1700" fill="rgb(185,166,134)" href="#1x1"/><use x="2200" y="1700" fill="rgb(92,99,102)" href="#1x1"/><use x="2300" y="1700" fill="rgb(45,42,37)" href="#1x1"/><use x="2400" y="1700" fill="rgb(39,29,19)" href="#1x1"/><use x="0" y="1800" fill="rgb(43,39,27)" href="#1x1"/><use x="100" y="1800" fill="rgb(41,36,23)" href="#1x1"/><use x="200" y="1800" fill="rgb(42,36,23)" href="#1x1"/><use x="300" y="1800" fill="rgb(40,35,20)" href="#1x1"/><use x="400" y="1800" fill="rgb(40,32,18)" href="#1x1"/><use x="500" y="1800" fill="rgb(40,33,20)" href="#1x1"/><use x="600" y="1800" fill="rgb(40,34,20)" href="#1x1"/><use x="700" y="1800" fill="rgb(43,39,26)" href="#1x1"/><use x="800" y="1800" fill="rgb(47,41,29)" href="#1x1"/><use x="900" y="1800" fill="rgb(96,81,64)" href="#1x1"/><use x="1000" y="1800" fill="rgb(100,83,64)" href="#1x1"/><use x="1100" y="1800" fill="rgb(103,85,65)" href="#1x1"/><use x="1200" y="1800" fill="rgb(152,128,100)" href="#1x1"/><use x="1300" y="1800" fill="rgb(160,143,119)" href="#1x1"/><use x="1400" y="1800" fill="rgb(192,182,164)" href="#1x1"/><use x="1500" y="1800" fill="rgb(214,207,193)" href="#1x1"/><use x="1600" y="1800" fill="rgb(179,172,156)" href="#1x1"/><use x="1700" y="1800" fill="rgb(122,114,92)" href="#1x1"/><use x="1800" y="1800" fill="rgb(98,92,71)" href="#1x1"/><use x="1900" y="1800" fill="rgb(135,119,88)" href="#1x1"/><use x="2000" y="1800" fill="rgb(199,168,121)" href="#1x1"/><use x="2100" y="1800" fill="rgb(182,162,127)" href="#1x1"/><use x="2200" y="1800" fill="rgb(87,86,83)" href="#1x1"/><use x="2300" y="1800" fill="rgb(59,62,61)" href="#1x1"/><use x="2400" y="1800" fill="rgb(41,31,20)" href="#1x1"/><use x="0" y="1900" fill="rgb(40,36,25)" href="#1x1"/><use x="100" y="1900" fill="rgb(38,35,23)" href="#1x1"/><use x="200" y="1900" fill="rgb(40,35,23)" href="#1x1"/><use x="300" y="1900" fill="rgb(42,37,24)" href="#1x1"/><use x="400" y="1900" fill="rgb(40,34,21)" href="#1x1"/><use x="500" y="1900" fill="rgb(40,34,21)" href="#1x1"/><use x="600" y="1900" fill="rgb(40,33,20)" href="#1x1"/><use x="700" y="1900" fill="rgb(41,35,22)" href="#1x1"/><use x="800" y="1900" fill="rgb(44,37,24)" href="#1x1"/><use x="900" y="1900" fill="rgb(44,39,25)" href="#1x1"/><use x="1000" y="1900" fill="rgb(42,36,24)" href="#1x1"/><use x="1100" y="1900" fill="rgb(47,38,23)" href="#1x1"/><use x="1200" y="1900" fill="rgb(213,201,181)" href="#1x1"/><use x="1300" y="1900" fill="rgb(237,232,217)" href="#1x1"/><use x="1400" y="1900" fill="rgb(182,171,147)" href="#1x1"/><use x="1500" y="1900" fill="rgb(104,99,79)" href="#1x1"/><use x="1600" y="1900" fill="rgb(75,74,54)" href="#1x1"/><use x="1700" y="1900" fill="rgb(71,71,50)" href="#1x1"/><use x="1800" y="1900" fill="rgb(68,68,50)" href="#1x1"/><use x="1900" y="1900" fill="rgb(103,94,71)" href="#1x1"/><use x="2000" y="1900" fill="rgb(199,168,122)" href="#1x1"/><use x="2100" y="1900" fill="rgb(179,157,121)" href="#1x1"/><use x="2200" y="1900" fill="rgb(96,94,86)" href="#1x1"/><use x="2300" y="1900" fill="rgb(75,82,84)" href="#1x1"/><use x="2400" y="1900" fill="rgb(42,32,22)" href="#1x1"/><use x="0" y="2000" fill="rgb(36,31,21)" href="#1x1"/><use x="100" y="2000" fill="rgb(35,28,15)" href="#1x1"/><use x="200" y="2000" fill="rgb(36,29,17)" href="#1x1"/><use x="300" y="2000" fill="rgb(39,33,20)" href="#1x1"/><use x="400" y="2000" fill="rgb(40,33,20)" href="#1x1"/><use x="500" y="2000" fill="rgb(39,32,18)" href="#1x1"/><use x="600" y="2000" fill="rgb(39,32,18)" href="#1x1"/><use x="700" y="2000" fill="rgb(37,30,15)" href="#1x1"/><use x="800" y="2000" fill="rgb(40,32,20)" href="#1x1"/><use x="900" y="2000" fill="rgb(41,36,23)" href="#1x1"/><use x="1000" y="2000" fill="rgb(40,34,22)" href="#1x1"/><use x="1100" y="2000" fill="rgb(144,137,124)" href="#1x1"/><use x="1200" y="2000" fill="rgb(218,203,175)" href="#1x1"/><use x="1300" y="2000" fill="rgb(198,160,104)" href="#1x1"/><use x="1400" y="2000" fill="rgb(156,136,96)" href="#1x1"/><use x="1500" y="2000" fill="rgb(91,88,68)" href="#1x1"/><use x="1600" y="2000" fill="rgb(68,67,49)" href="#1x1"/><use x="1700" y="2000" fill="rgb(67,66,47)" href="#1x1"/><use x="1800" y="2000" fill="rgb(69,65,47)" href="#1x1"/><use x="1900" y="2000" fill="rgb(80,73,56)" href="#1x1"/><use x="2000" y="2000" fill="rgb(211,182,136)" href="#1x1"/><use x="2100" y="2000" fill="rgb(171,146,108)" href="#1x1"/><use x="2200" y="2000" fill="rgb(107,103,92)" href="#1x1"/><use x="2300" y="2000" fill="rgb(104,114,115)" href="#1x1"/><use x="2400" y="2000" fill="rgb(47,42,34)" href="#1x1"/><use x="0" y="2100" fill="rgb(32,28,17)" href="#1x1"/><use x="100" y="2100" fill="rgb(33,26,15)" href="#1x1"/><use x="200" y="2100" fill="rgb(34,27,16)" href="#1x1"/><use x="300" y="2100" fill="rgb(37,30,18)" href="#1x1"/><use x="400" y="2100" fill="rgb(36,29,16)" href="#1x1"/><use x="500" y="2100" fill="rgb(39,32,19)" href="#1x1"/><use x="600" y="2100" fill="rgb(39,31,19)" href="#1x1"/><use x="700" y="2100" fill="rgb(37,30,16)" href="#1x1"/><use x="800" y="2100" fill="rgb(37,29,16)" href="#1x1"/><use x="900" y="2100" fill="rgb(37,29,16)" href="#1x1"/><use x="1000" y="2100" fill="rgb(41,33,22)" href="#1x1"/><use x="1100" y="2100" fill="rgb(182,167,139)" href="#1x1"/><use x="1200" y="2100" fill="rgb(194,155,96)" href="#1x1"/><use x="1300" y="2100" fill="rgb(198,158,95)" href="#1x1"/><use x="1400" y="2100" fill="rgb(136,122,90)" href="#1x1"/><use x="1500" y="2100" fill="rgb(86,83,64)" href="#1x1"/><use x="1600" y="2100" fill="rgb(64,61,46)" href="#1x1"/><use x="1700" y="2100" fill="rgb(65,63,45)" href="#1x1"/><use x="1800" y="2100" fill="rgb(69,67,47)" href="#1x1"/><use x="1900" y="2100" fill="rgb(73,67,51)" href="#1x1"/><use x="2000" y="2100" fill="rgb(221,190,144)" href="#1x1"/><use x="2100" y="2100" fill="rgb(167,147,114)" href="#1x1"/><use x="2200" y="2100" fill="rgb(114,123,122)" href="#1x1"/><use x="2300" y="2100" fill="rgb(174,179,162)" href="#1x1"/><use x="2400" y="2100" fill="rgb(56,58,55)" href="#1x1"/><use x="0" y="2200" fill="rgb(31,27,17)" href="#1x1"/><use x="100" y="2200" fill="rgb(30,24,13)" href="#1x1"/><use x="200" y="2200" fill="rgb(34,28,16)" href="#1x1"/><use x="300" y="2200" fill="rgb(36,32,20)" href="#1x1"/><use x="400" y="2200" fill="rgb(36,31,18)" href="#1x1"/><use x="500" y="2200" fill="rgb(38,32,19)" href="#1x1"/><use x="600" y="2200" fill="rgb(36,29,16)" href="#1x1"/><use x="700" y="2200" fill="rgb(35,27,13)" href="#1x1"/><use x="800" y="2200" fill="rgb(35,26,12)" href="#1x1"/><use x="900" y="2200" fill="rgb(36,28,15)" href="#1x1"/><use x="1000" y="2200" fill="rgb(72,61,40)" href="#1x1"/><use x="1100" y="2200" fill="rgb(181,148,95)" href="#1x1"/><use x="1200" y="2200" fill="rgb(193,154,96)" href="#1x1"/><use x="1300" y="2200" fill="rgb(183,151,96)" href="#1x1"/><use x="1400" y="2200" fill="rgb(163,139,92)" href="#1x1"/><use x="1500" y="2200" fill="rgb(86,81,60)" href="#1x1"/><use x="1600" y="2200" fill="rgb(68,66,47)" href="#1x1"/><use x="1700" y="2200" fill="rgb(66,64,47)" href="#1x1"/><use x="1800" y="2200" fill="rgb(65,63,46)" href="#1x1"/><use x="1900" y="2200" fill="rgb(56,53,44)" href="#1x1"/><use x="2000" y="2200" fill="rgb(188,179,152)" href="#1x1"/><use x="2100" y="2200" fill="rgb(153,157,144)" href="#1x1"/><use x="2200" y="2200" fill="rgb(126,139,138)" href="#1x1"/><use x="2300" y="2200" fill="rgb(189,192,168)" href="#1x1"/><use x="2400" y="2200" fill="rgb(80,84,82)" href="#1x1"/><use x="0" y="2300" fill="rgb(33,26,14)" href="#1x1"/><use x="100" y="2300" fill="rgb(30,22,11)" href="#1x1"/><use x="200" y="2300" fill="rgb(35,27,13)" href="#1x1"/><use x="300" y="2300" fill="rgb(38,31,18)" href="#1x1"/><use x="400" y="2300" fill="rgb(38,30,15)" href="#1x1"/><use x="500" y="2300" fill="rgb(37,29,14)" href="#1x1"/><use x="600" y="2300" fill="rgb(37,28,14)" href="#1x1"/><use x="700" y="2300" fill="rgb(35,27,12)" href="#1x1"/><use x="800" y="2300" fill="rgb(36,27,13)" href="#1x1"/><use x="900" y="2300" fill="rgb(36,27,13)" href="#1x1"/><use x="1000" y="2300" fill="rgb(124,107,77)" href="#1x1"/><use x="1100" y="2300" fill="rgb(161,138,97)" href="#1x1"/><use x="1200" y="2300" fill="rgb(166,143,99)" href="#1x1"/><use x="1300" y="2300" fill="rgb(201,158,96)" href="#1x1"/><use x="1400" y="2300" fill="rgb(198,157,94)" href="#1x1"/><use x="1500" y="2300" fill="rgb(118,102,69)" href="#1x1"/><use x="1600" y="2300" fill="rgb(95,83,52)" href="#1x1"/><use x="1700" y="2300" fill="rgb(79,71,48)" href="#1x1"/><use x="1800" y="2300" fill="rgb(65,62,46)" href="#1x1"/><use x="1900" y="2300" fill="rgb(50,51,47)" href="#1x1"/><use x="2000" y="2300" fill="rgb(150,168,167)" href="#1x1"/><use x="2100" y="2300" fill="rgb(152,166,156)" href="#1x1"/><use x="2200" y="2300" fill="rgb(94,105,104)" href="#1x1"/><use x="2300" y="2300" fill="rgb(125,126,113)" href="#1x1"/><use x="2400" y="2300" fill="rgb(59,55,47)" href="#1x1"/><use x="0" y="2400" fill="rgb(33,26,14)" href="#1x1"/><use x="100" y="2400" fill="rgb(32,25,14)" href="#1x1"/><use x="200" y="2400" fill="rgb(33,26,14)" href="#1x1"/><use x="300" y="2400" fill="rgb(37,29,16)" href="#1x1"/><use x="400" y="2400" fill="rgb(36,27,13)" href="#1x1"/><use x="500" y="2400" fill="rgb(35,25,12)" href="#1x1"/><use x="600" y="2400" fill="rgb(37,27,14)" href="#1x1"/><use x="700" y="2400" fill="rgb(37,28,14)" href="#1x1"/><use x="800" y="2400" fill="rgb(37,28,13)" href="#1x1"/><use x="900" y="2400" fill="rgb(50,38,22)" href="#1x1"/><use x="1000" y="2400" fill="rgb(154,138,104)" href="#1x1"/><use x="1100" y="2400" fill="rgb(169,148,108)" href="#1x1"/><use x="1200" y="2400" fill="rgb(189,155,100)" href="#1x1"/><use x="1300" y="2400" fill="rgb(177,150,103)" href="#1x1"/><use x="1400" y="2400" fill="rgb(175,148,103)" href="#1x1"/><use x="1500" y="2400" fill="rgb(140,118,81)" href="#1x1"/><use x="1600" y="2400" fill="rgb(97,84,56)" href="#1x1"/><use x="1700" y="2400" fill="rgb(94,82,53)" href="#1x1"/><use x="1800" y="2400" fill="rgb(84,73,49)" href="#1x1"/><use x="1900" y="2400" fill="rgb(59,57,49)" href="#1x1"/><use x="2000" y="2400" fill="rgb(126,147,152)" href="#1x1"/><use x="2100" y="2400" fill="rgb(122,138,138)" href="#1x1"/><use x="2200" y="2400" fill="rgb(43,46,47)" href="#1x1"/><use x="2300" y="2400" fill="rgb(35,34,31)" href="#1x1"/><use x="2400" y="2400" fill="rgb(45,33,18)" href="#1x1"/><use x="0" y="2500" fill="rgb(34,25,15)" href="#1x1"/><use x="100" y="2500" fill="rgb(34,26,15)" href="#1x1"/><use x="200" y="2500" fill="rgb(34,25,14)" href="#1x1"/><use x="300" y="2500" fill="rgb(36,27,14)" href="#1x1"/><use x="400" y="2500" fill="rgb(34,24,11)" href="#1x1"/><use x="500" y="2500" fill="rgb(35,25,11)" href="#1x1"/><use x="600" y="2500" fill="rgb(34,26,10)" href="#1x1"/><use x="700" y="2500" fill="rgb(37,28,13)" href="#1x1"/><use x="800" y="2500" fill="rgb(36,27,12)" href="#1x1"/><use x="900" y="2500" fill="rgb(65,52,34)" href="#1x1"/><use x="1000" y="2500" fill="rgb(167,148,112)" href="#1x1"/><use x="1100" y="2500" fill="rgb(207,164,104)" href="#1x1"/><use x="1200" y="2500" fill="rgb(193,157,101)" href="#1x1"/><use x="1300" y="2500" fill="rgb(154,134,95)" href="#1x1"/><use x="1400" y="2500" fill="rgb(156,137,99)" href="#1x1"/><use x="1500" y="2500" fill="rgb(156,132,88)" href="#1x1"/><use x="1600" y="2500" fill="rgb(102,90,61)" href="#1x1"/><use x="1700" y="2500" fill="rgb(84,75,52)" href="#1x1"/><use x="1800" y="2500" fill="rgb(87,75,51)" href="#1x1"/><use x="1900" y="2500" fill="rgb(83,73,51)" href="#1x1"/><use x="2000" y="2500" fill="rgb(50,48,42)" href="#1x1"/><use x="2100" y="2500" fill="rgb(36,36,34)" href="#1x1"/><use x="2200" y="2500" fill="rgb(32,31,30)" href="#1x1"/><use x="2300" y="2500" fill="rgb(33,32,30)" href="#1x1"/><use x="2400" y="2500" fill="rgb(45,31,13)" href="#1x1"/><use x="0" y="2600" fill="rgb(34,28,17)" href="#1x1"/><use x="100" y="2600" fill="rgb(35,27,17)" href="#1x1"/><use x="200" y="2600" fill="rgb(34,24,11)" href="#1x1"/><use x="300" y="2600" fill="rgb(35,26,12)" href="#1x1"/><use x="400" y="2600" fill="rgb(32,22,11)" href="#1x1"/><use x="500" y="2600" fill="rgb(32,21,9)" href="#1x1"/><use x="600" y="2600" fill="rgb(36,27,12)" href="#1x1"/><use x="700" y="2600" fill="rgb(37,28,14)" href="#1x1"/><use x="800" y="2600" fill="rgb(38,29,16)" href="#1x1"/><use x="900" y="2600" fill="rgb(131,108,70)" href="#1x1"/><use x="1000" y="2600" fill="rgb(178,153,108)" href="#1x1"/><use x="1100" y="2600" fill="rgb(207,161,101)" href="#1x1"/><use x="1200" y="2600" fill="rgb(174,144,96)" href="#1x1"/><use x="1300" y="2600" fill="rgb(139,123,89)" href="#1x1"/><use x="1400" y="2600" fill="rgb(140,126,89)" href="#1x1"/><use x="1500" y="2600" fill="rgb(145,125,86)" href="#1x1"/><use x="1600" y="2600" fill="rgb(100,87,63)" href="#1x1"/><use x="1700" y="2600" fill="rgb(80,70,47)" href="#1x1"/><use x="1800" y="2600" fill="rgb(81,72,51)" href="#1x1"/><use x="1900" y="2600" fill="rgb(89,76,51)" href="#1x1"/><use x="2000" y="2600" fill="rgb(74,66,48)" href="#1x1"/><use x="2100" y="2600" fill="rgb(33,31,27)" href="#1x1"/><use x="2200" y="2600" fill="rgb(33,31,28)" href="#1x1"/><use x="2300" y="2600" fill="rgb(36,32,28)" href="#1x1"/><use x="2400" y="2600" fill="rgb(43,24,10)" href="#1x1"/><use x="0" y="2700" fill="rgb(35,30,18)" href="#1x1"/><use x="100" y="2700" fill="rgb(35,27,15)" href="#1x1"/><use x="200" y="2700" fill="rgb(35,26,14)" href="#1x1"/><use x="300" y="2700" fill="rgb(36,28,14)" href="#1x1"/><use x="400" y="2700" fill="rgb(35,26,13)" href="#1x1"/><use x="500" y="2700" fill="rgb(30,19,9)" href="#1x1"/><use x="600" y="2700" fill="rgb(34,25,13)" href="#1x1"/><use x="700" y="2700" fill="rgb(36,27,14)" href="#1x1"/><use x="800" y="2700" fill="rgb(62,50,31)" href="#1x1"/><use x="900" y="2700" fill="rgb(171,147,105)" href="#1x1"/><use x="1000" y="2700" fill="rgb(179,146,96)" href="#1x1"/><use x="1100" y="2700" fill="rgb(139,116,78)" href="#1x1"/><use x="1200" y="2700" fill="rgb(157,130,86)" href="#1x1"/><use x="1300" y="2700" fill="rgb(129,116,83)" href="#1x1"/><use x="1400" y="2700" fill="rgb(125,112,81)" href="#1x1"/><use x="1500" y="2700" fill="rgb(150,125,82)" href="#1x1"/><use x="1600" y="2700" fill="rgb(99,87,62)" href="#1x1"/><use x="1700" y="2700" fill="rgb(83,71,45)" href="#1x1"/><use x="1800" y="2700" fill="rgb(83,72,50)" href="#1x1"/><use x="1900" y="2700" fill="rgb(92,79,48)" href="#1x1"/><use x="2000" y="2700" fill="rgb(86,75,50)" href="#1x1"/><use x="2100" y="2700" fill="rgb(48,44,35)" href="#1x1"/><use x="2200" y="2700" fill="rgb(33,29,25)" href="#1x1"/><use x="2300" y="2700" fill="rgb(34,31,28)" href="#1x1"/><use x="2400" y="2700" fill="rgb(43,22,9)" href="#1x1"/><use x="0" y="2800" fill="rgb(33,24,14)" href="#1x1"/><use x="100" y="2800" fill="rgb(33,25,14)" href="#1x1"/><use x="200" y="2800" fill="rgb(35,28,17)" href="#1x1"/><use x="300" y="2800" fill="rgb(36,28,16)" href="#1x1"/><use x="400" y="2800" fill="rgb(35,26,14)" href="#1x1"/><use x="500" y="2800" fill="rgb(35,26,14)" href="#1x1"/><use x="600" y="2800" fill="rgb(34,25,14)" href="#1x1"/><use x="700" y="2800" fill="rgb(37,30,19)" href="#1x1"/><use x="800" y="2800" fill="rgb(128,108,74)" href="#1x1"/><use x="900" y="2800" fill="rgb(183,155,108)" href="#1x1"/><use x="1000" y="2800" fill="rgb(179,145,92)" href="#1x1"/><use x="1100" y="2800" fill="rgb(127,110,76)" href="#1x1"/><use x="1200" y="2800" fill="rgb(162,134,86)" href="#1x1"/><use x="1300" y="2800" fill="rgb(124,111,81)" href="#1x1"/><use x="1400" y="2800" fill="rgb(125,112,80)" href="#1x1"/><use x="1500" y="2800" fill="rgb(160,131,83)" href="#1x1"/><use x="1600" y="2800" fill="rgb(105,93,63)" href="#1x1"/><use x="1700" y="2800" fill="rgb(75,67,51)" href="#1x1"/><use x="1800" y="2800" fill="rgb(82,72,49)" href="#1x1"/><use x="1900" y="2800" fill="rgb(107,91,50)" href="#1x1"/><use x="2000" y="2800" fill="rgb(81,72,51)" href="#1x1"/><use x="2100" y="2800" fill="rgb(59,55,42)" href="#1x1"/><use x="2200" y="2800" fill="rgb(29,27,24)" href="#1x1"/><use x="2300" y="2800" fill="rgb(31,30,29)" href="#1x1"/><use x="2400" y="2800" fill="rgb(41,22,8)" href="#1x1"/><use x="0" y="2900" fill="rgb(30,20,12)" href="#1x1"/><use x="100" y="2900" fill="rgb(29,20,13)" href="#1x1"/><use x="200" y="2900" fill="rgb(32,23,14)" href="#1x1"/><use x="300" y="2900" fill="rgb(34,26,16)" href="#1x1"/><use x="400" y="2900" fill="rgb(33,24,13)" href="#1x1"/><use x="500" y="2900" fill="rgb(33,24,14)" href="#1x1"/><use x="600" y="2900" fill="rgb(32,22,11)" href="#1x1"/><use x="700" y="2900" fill="rgb(56,45,29)" href="#1x1"/><use x="800" y="2900" fill="rgb(167,144,106)" href="#1x1"/><use x="900" y="2900" fill="rgb(201,160,101)" href="#1x1"/><use x="1000" y="2900" fill="rgb(162,137,92)" href="#1x1"/><use x="1100" y="2900" fill="rgb(120,106,73)" href="#1x1"/><use x="1200" y="2900" fill="rgb(161,132,86)" href="#1x1"/><use x="1300" y="2900" fill="rgb(120,106,77)" href="#1x1"/><use x="1400" y="2900" fill="rgb(119,106,77)" href="#1x1"/><use x="1500" y="2900" fill="rgb(154,127,80)" href="#1x1"/><use x="1600" y="2900" fill="rgb(105,94,64)" href="#1x1"/><use x="1700" y="2900" fill="rgb(73,66,47)" href="#1x1"/><use x="1800" y="2900" fill="rgb(76,65,46)" href="#1x1"/><use x="1900" y="2900" fill="rgb(85,72,46)" href="#1x1"/><use x="2000" y="2900" fill="rgb(79,66,43)" href="#1x1"/><use x="2100" y="2900" fill="rgb(62,56,42)" href="#1x1"/><use x="2200" y="2900" fill="rgb(30,29,27)" href="#1x1"/><use x="2300" y="2900" fill="rgb(28,25,23)" href="#1x1"/><use x="2400" y="2900" fill="rgb(38,19,7)" href="#1x1"/><use x="0" y="3000" fill="rgb(31,21,13)" href="#1x1"/><use x="100" y="3000" fill="rgb(30,20,13)" href="#1x1"/><use x="200" y="3000" fill="rgb(29,20,11)" href="#1x1"/><use x="300" y="3000" fill="rgb(32,23,11)" href="#1x1"/><use x="400" y="3000" fill="rgb(30,20,10)" href="#1x1"/><use x="500" y="3000" fill="rgb(29,19,10)" href="#1x1"/><use x="600" y="3000" fill="rgb(34,23,12)" href="#1x1"/><use x="700" y="3000" fill="rgb(107,92,67)" href="#1x1"/><use x="800" y="3000" fill="rgb(179,150,104)" href="#1x1"/><use x="900" y="3000" fill="rgb(193,154,97)" href="#1x1"/><use x="1000" y="3000" fill="rgb(154,132,92)" href="#1x1"/><use x="1100" y="3000" fill="rgb(107,97,70)" href="#1x1"/><use x="1200" y="3000" fill="rgb(147,123,82)" href="#1x1"/><use x="1300" y="3000" fill="rgb(122,106,76)" href="#1x1"/><use x="1400" y="3000" fill="rgb(116,101,72)" href="#1x1"/><use x="1500" y="3000" fill="rgb(141,119,76)" href="#1x1"/><use x="1600" y="3000" fill="rgb(98,86,57)" href="#1x1"/><use x="1700" y="3000" fill="rgb(69,61,41)" href="#1x1"/><use x="1800" y="3000" fill="rgb(75,64,47)" href="#1x1"/><use x="1900" y="3000" fill="rgb(67,58,42)" href="#1x1"/><use x="2000" y="3000" fill="rgb(70,60,41)" href="#1x1"/><use x="2100" y="3000" fill="rgb(68,60,43)" href="#1x1"/><use x="2200" y="3000" fill="rgb(35,33,30)" href="#1x1"/><use x="2300" y="3000" fill="rgb(31,25,22)" href="#1x1"/><use x="2400" y="3000" fill="rgb(37,18,9)" href="#1x1"/></g></svg>